<svg version="1.1" xmlns="http://www.w3.org/2000/svg" viewBox="0 0 250 250"><desc>Created with Snap</desc><defs></defs><g transform="matrix(0.0099,0,0,0.0099,2.8335,127.6457)"><g transform="matrix(29.6881,0,0,29.6881,21986.5807,-1766.033)"><g><path d="M74.265,60.41c0.964,2.929,1.401,5.966,1.261,9.015c2.584-0.989,5.013-2.49,7.095-4.572c0.244-0.244,0.41-0.527,0.637-0.78   c0.018-0.341,0.105-0.659,0.105-1.004c0-2.924-0.646-5.691-1.764-8.203C79.522,57.139,77.045,59.022,74.265,60.41z" fill="#143d59" style=""></path><path d="M54.863,81.605c2.509,1.112,5.276,1.759,8.2,1.759c0.349,0,0.664-0.085,1.004-0.103c0.253-0.227,0.541-0.393,0.781-0.637   c2.08-2.085,3.585-4.516,4.572-7.104c-3.049,0.14-6.086-0.292-9.01-1.257C59.022,77.049,57.137,79.528,54.863,81.605z" fill="#143d59" style=""></path><path d="M40.588,74.265c-2.925,0.965-5.965,1.396-9.013,1.257c0.988,2.588,2.49,5.023,4.573,7.104   c0.242,0.244,0.528,0.41,0.779,0.637c0.339,0.018,0.661,0.103,1.003,0.103c2.926,0,5.691-0.646,8.202-1.759   C43.861,79.528,41.976,77.049,40.588,74.265z" fill="#143d59" style=""></path><path d="M26.731,60.41c-2.781-1.388-5.26-3.271-7.337-5.545c-1.112,2.512-1.758,5.279-1.758,8.203c0,0.345,0.085,0.663,0.1,1.004   c0.229,0.253,0.395,0.536,0.639,0.78c2.082,2.082,4.515,3.583,7.098,4.572C25.333,66.376,25.767,63.339,26.731,60.41z" fill="#143d59" style=""></path><path d="M26.731,40.592c-0.964-2.929-1.398-5.966-1.259-9.016c-2.583,0.989-5.014,2.491-7.098,4.572   c-0.244,0.245-0.41,0.528-0.639,0.781c-0.015,0.341-0.1,0.659-0.1,1.004c0,2.924,0.646,5.69,1.76,8.205   C21.471,43.863,23.95,41.979,26.731,40.592z" fill="#143d59" style=""></path><path d="M46.132,19.397c-2.511-1.114-5.275-1.76-8.202-1.76c-0.342,0-0.664,0.084-1.003,0.102   c-0.251,0.228-0.537,0.393-0.779,0.638c-2.083,2.08-3.585,4.515-4.573,7.103c3.048-0.14,6.088,0.293,9.013,1.257   C41.976,23.952,43.861,21.475,46.132,19.397z" fill="#143d59" style=""></path><path d="M60.41,26.736c2.924-0.964,5.961-1.396,9.01-1.257c-0.99-2.588-2.492-5.017-4.572-7.103   c-0.24-0.245-0.528-0.41-0.781-0.638c-0.34-0.018-0.659-0.102-1.004-0.102c-2.924,0-5.691,0.646-8.2,1.76   C57.137,21.475,59.022,23.952,60.41,26.736z" fill="#143d59" style=""></path><path d="M82.621,36.148c-2.082-2.081-4.511-3.583-7.095-4.572c0.14,3.05-0.297,6.087-1.261,9.016   c2.78,1.388,5.257,3.271,7.334,5.547c1.117-2.515,1.764-5.281,1.764-8.205c0-0.345-0.088-0.663-0.105-1.004   C83.031,36.677,82.865,36.394,82.621,36.148z" fill="#143d59" style=""></path><path d="M58.228,63.068c0-0.166-0.048-0.319-0.052-0.484c-1.061-0.21-2.09-0.498-3.099-0.834c-0.462,0.921-0.89,1.851-1.469,2.719   c0.113,0.122,0.19,0.267,0.309,0.384c1.143,1.14,2.404,2.069,3.718,2.881C57.993,66.228,58.228,64.683,58.228,63.068z" fill="#143d59" style=""></path><path d="M43.362,67.733c1.313-0.812,2.574-1.741,3.715-2.881c0.12-0.117,0.199-0.262,0.312-0.384   c-0.581-0.868-1.008-1.798-1.471-2.719c-1.008,0.336-2.038,0.624-3.1,0.834c-0.002,0.165-0.048,0.318-0.048,0.484   C42.771,64.683,43.006,66.228,43.362,67.733z" fill="#143d59" style=""></path><path d="M36.148,53.922c-1.139,1.14-2.068,2.4-2.88,3.717c1.503,0.355,3.051,0.59,4.663,0.59c0.166,0,0.318-0.044,0.484-0.048   c0.209-1.06,0.495-2.094,0.833-3.102c-0.918-0.463-1.848-0.886-2.716-1.471C36.411,53.726,36.269,53.805,36.148,53.922z" fill="#143d59" style=""></path><path d="M38.415,42.821c-0.166-0.006-0.319-0.05-0.484-0.05c-1.612,0-3.159,0.236-4.663,0.591c0.812,1.318,1.739,2.578,2.88,3.717   c0.12,0.118,0.262,0.196,0.384,0.314c0.868-0.583,1.797-1.008,2.716-1.471C38.91,44.916,38.625,43.881,38.415,42.821z" fill="#143d59" style=""></path><path d="M42.771,37.934c0,0.166,0.046,0.318,0.048,0.484c1.062,0.21,2.092,0.498,3.1,0.834c0.462-0.921,0.89-1.851,1.471-2.719   c-0.113-0.123-0.192-0.267-0.312-0.385c-1.141-1.139-2.402-2.066-3.715-2.879C43.006,34.774,42.771,36.319,42.771,37.934z" fill="#143d59" style=""></path><path d="M57.635,33.27c-1.314,0.812-2.575,1.74-3.718,2.879c-0.118,0.118-0.195,0.262-0.309,0.385   c0.579,0.868,1.007,1.798,1.469,2.719c1.008-0.336,2.038-0.624,3.099-0.834c0.004-0.166,0.052-0.318,0.052-0.484   C58.228,36.319,57.993,34.774,57.635,33.27z" fill="#143d59" style=""></path><path d="M63.063,42.771c-0.166,0-0.314,0.044-0.48,0.05c-0.209,1.06-0.498,2.095-0.838,3.102c0.921,0.463,1.851,0.888,2.719,1.471   c0.122-0.118,0.266-0.196,0.384-0.314c1.139-1.139,2.067-2.398,2.883-3.717C66.226,43.008,64.678,42.771,63.063,42.771z" fill="#143d59" style=""></path><path d="M48.074,49.493c-0.035,0.676-0.035,1.339,0,2.012c0.452,0.502,0.921,0.969,1.42,1.423c0.671,0.034,1.335,0.034,2.007,0   c0.5-0.454,0.972-0.926,1.423-1.423c0.035-0.673,0.033-1.336,0-2.008c-0.451-0.502-0.921-0.969-1.42-1.423   c-0.673-0.035-1.34-0.035-2.012,0C48.995,48.528,48.524,48.995,48.074,49.493z" fill="#143d59" style=""></path><path d="M64.464,53.608c-0.868,0.585-1.798,1.008-2.719,1.471c0.34,1.008,0.628,2.042,0.838,3.102   c0.166,0.004,0.314,0.048,0.48,0.048c1.615,0,3.163-0.234,4.668-0.59c-0.816-1.316-1.745-2.577-2.883-3.717   C64.73,53.805,64.586,53.726,64.464,53.608z" fill="#143d59" style=""></path><path d="M72.271,55.926c2.583-1.327,4.827-3.173,6.615-5.425c-1.788-2.252-4.031-4.098-6.615-5.425   c-1.091,1.929-2.357,3.784-3.998,5.425C69.914,52.142,71.179,53.996,72.271,55.926z" fill="#143d59" style=""></path><path d="M62.138,31.245c0.585,2.133,0.925,4.367,0.925,6.688c2.322,0,4.555,0.341,6.689,0.93c0.868-2.745,1.143-5.603,0.82-8.436   C67.74,30.104,64.879,30.375,62.138,31.245z" fill="#143d59" style=""></path><path d="M50.498,22.11c-2.253,1.794-4.099,4.033-5.424,6.616c1.927,1.096,3.782,2.361,5.424,4.002   c1.644-1.641,3.498-2.906,5.426-4.002C54.597,26.144,52.752,23.904,50.498,22.11z" fill="#143d59" style=""></path><path d="M37.931,37.934c0-2.321,0.34-4.556,0.927-6.688c-2.74-0.87-5.601-1.141-8.432-0.817c-0.323,2.833-0.05,5.69,0.817,8.436   C33.377,38.274,35.612,37.934,37.931,37.934z" fill="#143d59" style=""></path><path d="M22.108,50.501c1.794,2.252,4.034,4.098,6.618,5.425c1.091-1.93,2.356-3.784,3.999-5.425   c-1.643-1.641-2.908-3.496-4.001-5.425C26.143,46.403,23.902,48.249,22.108,50.501z" fill="#143d59" style=""></path><path d="M38.858,69.757c-0.587-2.133-0.927-4.367-0.927-6.688c-2.319,0-4.553-0.341-6.688-0.93   c-0.868,2.745-1.14,5.604-0.817,8.436C33.257,70.896,36.118,70.627,38.858,69.757z" fill="#143d59" style=""></path><path d="M50.498,78.891c2.255-1.793,4.1-4.032,5.426-6.616c-1.929-1.095-3.782-2.36-5.426-4c-1.642,1.64-3.497,2.905-5.424,4   C46.401,74.858,48.245,77.098,50.498,78.891z" fill="#143d59" style=""></path><path d="M63.063,63.068c0,2.321-0.34,4.556-0.925,6.688c2.741,0.87,5.602,1.139,8.435,0.817c0.323-2.832,0.048-5.695-0.82-8.436   C67.618,62.728,65.385,63.068,63.063,63.068z" fill="#143d59" style=""></path><path d="M87.425,44.026c-0.571,2.304-1.457,4.476-2.614,6.475c1.157,1.999,2.043,4.177,2.614,6.475   C88.844,52.771,88.844,48.231,87.425,44.026z" fill="#143d59" style=""></path><path d="M81.233,29.05c-1.981-4.041-5.244-7.301-9.286-9.282c1.249,2.063,2.147,4.268,2.745,6.541   C76.966,26.907,79.165,27.802,81.233,29.05z" fill="#143d59" style=""></path><path d="M56.971,13.576c-4.204-1.418-8.742-1.418-12.947,0c2.3,0.571,4.473,1.453,6.473,2.614   C52.5,15.029,54.671,14.147,56.971,13.576z" fill="#143d59" style=""></path><path d="M29.047,19.768c-4.042,1.981-7.301,5.241-9.284,9.282c2.066-1.248,4.268-2.143,6.541-2.741   C26.904,24.035,27.798,21.831,29.047,19.768z" fill="#143d59" style=""></path><path d="M13.571,56.973c0.574-2.3,1.458-4.473,2.616-6.472c-1.159-1.999-2.04-4.171-2.616-6.472   C12.158,48.231,12.158,52.771,13.571,56.973z" fill="#143d59" style=""></path><path d="M19.765,71.952c1.981,4.041,5.24,7.297,9.279,9.282c-1.248-2.068-2.141-4.269-2.741-6.542   C24.031,74.095,21.829,73.2,19.765,71.952z" fill="#143d59" style=""></path><path d="M44.024,87.426c4.205,1.418,8.746,1.418,12.947,0c-2.3-0.572-4.472-1.453-6.474-2.614   C48.498,85.973,46.324,86.854,44.024,87.426z" fill="#143d59" style=""></path><path d="M71.952,81.234c4.037-1.985,7.3-5.241,9.281-9.282c-2.068,1.248-4.267,2.143-6.541,2.74   C74.095,76.966,73.2,79.166,71.952,81.234z" fill="#143d59" style=""></path></g><desc>Created with Snap</desc><defs></defs></g><g><g transform="matrix(1.024,0,0,-1.024,0,0)"><path d="M600 47L637 47Q647 47 653 40Q660 33 660 23Q660 13 653 6Q647 0 637 0L600 0Q556 0 539 19Q523 38 523 62L523 282L156 282L156 13Q156 3 148 -4Q140 -10 129 -10Q118 -10 110 -4Q102 3 102 13L102 561L44 561Q34 561 27 567Q21 574 21 584Q21 594 27 601Q34 608 44 608L130 608Q140 608 148 601Q156 594 156 584L156 329L523 329L523 561L464 561Q454 561 447 567Q441 574 441 584Q441 594 447 601Q454 608 464 608L551 608Q561 608 569 601Q577 594 577 584L577 62Q577 47 600 47ZM1112 47L1159 47Q1169 47 1175 40Q1182 34 1182 24Q1182 14 1175 7Q1169 0 1159 0L1105 0Q1043 0 1043 68Q983 -10 892 -10Q838 -10 803 17Q769 45 769 98L769 308Q769 327 742 327L703 327Q693 327 686 334Q680 341 680 351Q680 361 686 367Q693 374 703 374L742 374Q823 374 823 309L823 98Q823 68 841 52Q860 36 893 36Q985 36 1039 132L1039 361Q1039 371 1047 377Q1055 384 1066 384Q1077 384 1085 377Q1093 371 1093 361L1093 66Q1093 47 1112 47ZM1824 276L1824 66Q1824 47 1851 47L1890 47Q1900 47 1906 40Q1913 33 1913 23Q1913 13 1906 6Q1900 0 1890 0L1851 0Q1770 0 1770 65L1770 276Q1770 338 1712 338Q1634 338 1583 251L1583 13Q1583 3 1575 -4Q1567 -10 1556 -10Q1545 -10 1537 -4Q1529 3 1529 13L1529 276Q1529 338 1471 338Q1426 338 1395 315Q1365 292 1337 243L1337 13Q1337 3 1329 -4Q1321 -10 1310 -10Q1299 -10 1291 -4Q1283 3 1283 13L1283 308Q1283 327 1264 327L1217 327Q1207 327 1200 333Q1194 340 1194 350Q1194 360 1200 367Q1207 374 1217 374L1271 374Q1333 374 1333 306Q1364 346 1395 365Q1427 384 1472 384Q1558 384 1578 312Q1608 348 1639 366Q1670 384 1717 384Q1764 384 1794 356Q1824 329 1824 276ZM2228 136L2228 155Q2162 173 2115 173Q2069 173 2039 155Q2010 137 2010 104Q2010 72 2029 54Q2048 36 2081 36Q2173 36 2228 136ZM2308 47L2347 47Q2357 47 2363 40Q2370 33 2370 23Q2370 13 2363 6Q2357 0 2347 0L2303 0Q2267 0 2247 16Q2228 32 2228 61Q2228 66 2229 72Q2176 -10 2075 -10Q2019 -10 1987 20Q1956 50 1956 103Q1956 157 1998 187Q2041 218 2104 218Q2168 218 2228 197L2228 266Q2228 314 2193 328Q2166 338 2118 338Q2071 338 2031 322L2031 259Q2031 249 2023 242Q2015 236 2004 236Q1993 236 1985 242Q1977 249 1977 259L1977 335Q1977 348 1990 355Q2039 384 2120 384Q2201 384 2241 357Q2281 331 2281 266L2281 66Q2281 47 2308 47ZM2440 327L2393 327Q2383 327 2376 333Q2370 340 2370 350Q2370 360 2376 367Q2383 374 2393 374L2447 374Q2509 374 2509 306Q2569 384 2660 384Q2714 384 2748 356Q2783 329 2783 276L2783 66Q2783 47 2810 47L2849 47Q2859 47 2865 40Q2872 33 2872 23Q2872 13 2865 6Q2859 0 2849 0L2810 0Q2729 0 2729 65L2729 276Q2729 306 2710 322Q2692 338 2659 338Q2567 338 2513 242L2513 13Q2513 3 2505 -4Q2497 -10 2486 -10Q2475 -10 2467 -4Q2459 3 2459 13L2459 308Q2459 327 2440 327ZM3449 561L3249 561L3249 279L3449 279Q3614 279 3614 421Q3614 496 3572 528Q3531 561 3449 561ZM3449 233L3249 233L3249 13Q3249 3 3241 -4Q3233 -10 3222 -10Q3211 -10 3203 -4Q3195 3 3195 13L3195 561L3135 561Q3125 561 3118 567Q3112 574 3112 584Q3112 594 3118 601Q3125 608 3135 608L3449 608Q3668 608 3668 421Q3668 286 3549 247L3678 24Q3680 20 3680 15Q3680 1 3668 -5Q3657 -11 3648 -11Q3639 -11 3632 0L3495 235Q3469 233 3449 233ZM4073 220Q4070 274 4041 306Q4013 338 3959 338Q3906 338 3870 305Q3834 273 3825 220L4073 220ZM4075 96Q4082 108 4091 108Q4100 108 4109 103Q4118 99 4121 89Q4125 80 4120 72Q4069 -10 3958 -10Q3870 -10 3819 46Q3769 103 3769 189Q3769 275 3821 329Q3873 384 3958 384Q4043 384 4084 333Q4126 282 4126 197Q4126 174 4100 174L3823 173Q3827 111 3863 73Q3900 36 3958 36Q4036 36 4075 96ZM4213 39L4213 120Q4213 130 4221 136Q4229 143 4240 143Q4251 143 4259 136Q4267 130 4267 120L4267 52Q4315 36 4367 36Q4481 36 4481 100Q4481 148 4374 171Q4369 172 4352 176Q4335 180 4324 182Q4313 185 4287 194Q4262 204 4251 214Q4221 241 4221 280Q4221 320 4247 344Q4274 369 4306 376Q4338 384 4376 384Q4446 384 4505 357Q4523 349 4523 335L4523 258Q4523 248 4515 241Q4507 235 4496 235Q4485 235 4477 241Q4469 248 4469 258L4469 322Q4429 338 4376 338Q4274 338 4274 280Q4274 259 4287 251Q4301 243 4307 239Q4314 235 4331 231Q4355 225 4380 220Q4405 215 4421 211Q4437 207 4461 197Q4486 188 4500 176Q4535 148 4535 103Q4535 58 4505 31Q4476 5 4441 -3Q4407 -10 4367 -10Q4288 -10 4231 16Q4213 24 4213 39ZM4812 36Q4873 36 4911 78Q4950 120 4950 186Q4950 253 4911 295Q4873 338 4812 338Q4751 338 4712 295Q4674 253 4674 186Q4674 120 4712 78Q4751 36 4812 36ZM4673 45Q4620 101 4620 187Q4620 273 4674 328Q4728 384 4812 384Q4896 384 4949 328Q5003 273 5003 186Q5003 100 4949 45Q4896 -10 4811 -10Q4727 -10 4673 45ZM5477 47L5524 47Q5534 47 5540 40Q5547 34 5547 24Q5547 14 5540 7Q5534 0 5524 0L5470 0Q5408 0 5408 68Q5348 -10 5257 -10Q5203 -10 5168 17Q5134 45 5134 98L5134 308Q5134 327 5107 327L5068 327Q5058 327 5051 334Q5045 341 5045 351Q5045 361 5051 367Q5058 374 5068 374L5107 374Q5188 374 5188 309L5188 98Q5188 68 5206 52Q5225 36 5258 36Q5350 36 5404 132L5404 361Q5404 371 5412 377Q5420 384 5431 384Q5442 384 5450 377Q5458 371 5458 361L5458 66Q5458 47 5477 47ZM5582 374L5633 374Q5696 374 5698 306Q5752 384 5826 384Q5868 384 5897 368Q5911 360 5911 347L5911 263Q5911 253 5903 246Q5895 240 5884 240Q5873 240 5865 246Q5857 253 5857 263L5857 333Q5844 338 5818 338Q5792 338 5759 313Q5726 289 5702 241L5702 13Q5702 3 5694 -4Q5686 -10 5675 -10Q5664 -10 5656 -4Q5648 3 5648 13L5648 308Q5648 327 5628 327L5582 327Q5572 327 5565 333Q5559 340 5559 350Q5559 360 5565 367Q5572 374 5582 374ZM6275 96Q6283 108 6291 108Q6300 108 6309 104Q6323 98 6323 87Q6323 77 6320 72Q6269 -10 6158 -10Q6073 -10 6022 47Q5971 105 5971 189Q5971 273 6024 328Q6078 384 6157 384Q6237 384 6296 347Q6308 339 6308 328L6308 244Q6308 234 6300 227Q6292 221 6281 221Q6270 221 6262 227Q6254 234 6254 244L6254 315Q6214 338 6158 338Q6102 338 6063 296Q6024 254 6024 187Q6024 121 6061 78Q6099 36 6158 36Q6236 36 6275 96ZM6705 220Q6702 274 6673 306Q6645 338 6591 338Q6538 338 6502 305Q6466 273 6457 220L6705 220ZM6707 96Q6714 108 6723 108Q6732 108 6741 103Q6750 99 6753 89Q6757 80 6752 72Q6701 -10 6590 -10Q6502 -10 6451 46Q6401 103 6401 189Q6401 275 6453 329Q6505 384 6590 384Q6675 384 6716 333Q6758 282 6758 197Q6758 174 6732 174L6455 173Q6459 111 6495 73Q6532 36 6590 36Q6668 36 6707 96ZM7480 237L7334 537L7189 237L7480 237ZM7249 608L7338 608Q7354 608 7360 596L7643 24Q7645 20 7645 15Q7645 -2 7629 -8Q7623 -10 7618 -10Q7601 -10 7595 3L7502 191L7167 191L7074 3Q7065 -17 7040 -8Q7024 -2 7024 14Q7024 18 7026 23L7292 561L7249 561Q7239 561 7232 567Q7226 574 7226 584Q7226 594 7232 601Q7239 608 7249 608ZM7717 327L7670 327Q7660 327 7653 333Q7647 340 7647 350Q7647 360 7653 367Q7660 374 7670 374L7724 374Q7786 374 7786 306Q7846 384 7937 384Q7991 384 8025 356Q8060 329 8060 276L8060 66Q8060 47 8087 47L8126 47Q8136 47 8142 40Q8149 33 8149 23Q8149 13 8142 6Q8136 0 8126 0L8087 0Q8006 0 8006 65L8006 276Q8006 306 7987 322Q7969 338 7936 338Q7844 338 7790 242L7790 13Q7790 3 7782 -4Q7774 -10 7763 -10Q7752 -10 7744 -4Q7736 3 7736 13L7736 308Q7736 327 7717 327ZM8370 338Q8313 338 8279 297Q8245 256 8245 186Q8245 116 8278 76Q8312 36 8370 36Q8454 36 8504 131L8504 278Q8478 303 8441 320Q8405 338 8370 338ZM8504 331L8504 703L8438 703Q8428 703 8421 709Q8415 716 8415 726Q8415 736 8421 743Q8428 750 8438 750L8531 750Q8542 750 8550 743Q8558 736 8558 726L8558 66Q8558 47 8578 47L8624 47Q8634 47 8640 40Q8647 34 8647 24Q8647 14 8640 7Q8634 0 8624 0L8571 0Q8506 0 8508 71Q8486 37 8450 13Q8415 -10 8370 -10Q8281 -10 8236 47Q8192 104 8192 188Q8192 272 8238 328Q8285 384 8366 384Q8447 384 8504 331ZM9142 13L9142 561L8944 561L8944 502Q8944 492 8936 485Q8928 479 8917 479Q8906 479 8898 485Q8890 492 8890 502L8890 584Q8890 594 8898 601Q8906 608 8916 608L9421 608Q9432 608 9440 601Q9448 594 9448 584L9448 502Q9448 492 9440 485Q9432 479 9421 479Q9410 479 9402 485Q9394 492 9394 502L9394 561L9196 561L9196 13Q9196 3 9188 -4Q9180 -10 9169 -10Q9158 -10 9150 -4Q9142 3 9142 13ZM9611 351L9611 13Q9611 3 9603 -4Q9595 -10 9584 -10Q9573 -10 9565 -4Q9557 3 9557 13L9557 327L9491 327Q9481 327 9474 333Q9468 340 9468 350Q9468 360 9474 367Q9481 374 9491 374L9588 374Q9611 374 9611 351ZM9555 524Q9546 534 9546 548Q9546 562 9555 572Q9564 582 9580 582Q9596 582 9605 572Q9615 562 9615 548Q9615 534 9605 524Q9596 514 9580 514Q9564 514 9555 524ZM10314 276L10314 66Q10314 47 10341 47L10380 47Q10390 47 10396 40Q10403 33 10403 23Q10403 13 10396 6Q10390 0 10380 0L10341 0Q10260 0 10260 65L10260 276Q10260 338 10202 338Q10124 338 10073 251L10073 13Q10073 3 10065 -4Q10057 -10 10046 -10Q10035 -10 10027 -4Q10019 3 10019 13L10019 276Q10019 338 9961 338Q9916 338 9885 315Q9855 292 9827 243L9827 13Q9827 3 9819 -4Q9811 -10 9800 -10Q9789 -10 9781 -4Q9773 3 9773 13L9773 308Q9773 327 9754 327L9707 327Q9697 327 9690 333Q9684 340 9684 350Q9684 360 9690 367Q9697 374 9707 374L9761 374Q9823 374 9823 306Q9854 346 9885 365Q9917 384 9962 384Q10048 384 10068 312Q10098 348 10129 366Q10160 384 10207 384Q10254 384 10284 356Q10314 329 10314 276ZM10750 220Q10747 274 10718 306Q10690 338 10636 338Q10583 338 10547 305Q10511 273 10502 220L10750 220ZM10752 96Q10759 108 10768 108Q10777 108 10786 103Q10795 99 10798 89Q10802 80 10797 72Q10746 -10 10635 -10Q10547 -10 10496 46Q10446 103 10446 189Q10446 275 10498 329Q10550 384 10635 384Q10720 384 10761 333Q10803 282 10803 197Q10803 174 10777 174L10500 173Q10504 111 10540 73Q10577 36 10635 36Q10713 36 10752 96ZM10890 39L10890 120Q10890 130 10898 136Q10906 143 10917 143Q10928 143 10936 136Q10944 130 10944 120L10944 52Q10992 36 11044 36Q11158 36 11158 100Q11158 148 11051 171Q11046 172 11029 176Q11012 180 11001 182Q10990 185 10964 194Q10939 204 10928 214Q10898 241 10898 280Q10898 320 10924 344Q10951 369 10983 376Q11015 384 11053 384Q11123 384 11182 357Q11200 349 11200 335L11200 258Q11200 248 11192 241Q11184 235 11173 235Q11162 235 11154 241Q11146 248 11146 258L11146 322Q11106 338 11053 338Q10951 338 10951 280Q10951 259 10964 251Q10978 243 10984 239Q10991 235 11008 231Q11032 225 11057 220Q11082 215 11098 211Q11114 207 11138 197Q11163 188 11177 176Q11212 148 11212 103Q11212 58 11182 31Q11153 5 11118 -3Q11084 -10 11044 -10Q10965 -10 10908 16Q10890 24 10890 39ZM11377 242L11377 13Q11377 3 11369 -4Q11361 -10 11350 -10Q11339 -10 11331 -4Q11323 3 11323 13L11323 703L11257 703Q11247 703 11240 709Q11234 716 11234 726Q11234 736 11240 743Q11247 750 11257 750L11351 750Q11361 750 11369 743Q11377 736 11377 726L11377 307Q11439 386 11524 386Q11580 386 11613 357Q11647 329 11647 278L11647 65Q11647 47 11674 47L11713 47Q11723 47 11729 40Q11736 33 11736 23Q11736 13 11729 6Q11723 0 11713 0L11674 0Q11593 0 11593 65L11593 278Q11593 340 11524 340Q11432 340 11377 242ZM12083 220Q12080 274 12051 306Q12023 338 11969 338Q11916 338 11880 305Q11844 273 11835 220L12083 220ZM12085 96Q12092 108 12101 108Q12110 108 12119 103Q12128 99 12131 89Q12135 80 12130 72Q12079 -10 11968 -10Q11880 -10 11829 46Q11779 103 11779 189Q11779 275 11831 329Q11883 384 11968 384Q12053 384 12094 333Q12136 282 12136 197Q12136 174 12110 174L11833 173Q11837 111 11873 73Q11910 36 11968 36Q12046 36 12085 96ZM12523 220Q12520 274 12491 306Q12463 338 12409 338Q12356 338 12320 305Q12284 273 12275 220L12523 220ZM12525 96Q12532 108 12541 108Q12550 108 12559 103Q12568 99 12571 89Q12575 80 12570 72Q12519 -10 12408 -10Q12320 -10 12269 46Q12219 103 12219 189Q12219 275 12271 329Q12323 384 12408 384Q12493 384 12534 333Q12576 282 12576 197Q12576 174 12550 174L12273 173Q12277 111 12313 73Q12350 36 12408 36Q12486 36 12525 96ZM12948 64Q12956 69 12966 67Q12977 65 12981 58Q12985 52 12985 47Q12985 32 12974 25Q12914 -10 12845 -10Q12776 -10 12746 18Q12716 47 12716 113L12716 327L12660 327Q12650 327 12643 333Q12637 340 12637 350Q12637 360 12643 367Q12650 374 12660 374L12716 374L12716 517Q12716 527 12724 533Q12732 540 12743 540Q12754 540 12762 533Q12770 527 12770 517L12770 374L12938 374Q12948 374 12954 367Q12961 360 12961 350Q12961 340 12954 333Q12948 327 12938 327L12770 327L12770 113Q12770 71 12787 53Q12805 36 12852 36Q12900 36 12948 64ZM13318 13L13318 561L13258 561Q13248 561 13241 567Q13235 574 13235 584Q13235 594 13241 601Q13248 608 13258 608L13341 608Q13357 608 13367 596L13618 253L13868 595Q13877 608 13893 608L13978 608Q13988 608 13994 601Q14001 594 14001 584Q14001 574 13994 567Q13988 561 13978 561L13918 561L13918 62Q13918 47 13941 47L13978 47Q13988 47 13994 40Q14001 33 14001 23Q14001 13 13994 6Q13988 0 13978 0L13941 0Q13864 0 13864 62L13864 503L13640 197Q13632 186 13618 186Q13604 186 13596 197L13372 503L13372 13Q13372 3 13364 -4Q13356 -10 13345 -10Q13334 -10 13326 -4Q13318 3 13318 13ZM14344 136L14344 155Q14278 173 14231 173Q14185 173 14155 155Q14126 137 14126 104Q14126 72 14145 54Q14164 36 14197 36Q14289 36 14344 136ZM14424 47L14463 47Q14473 47 14479 40Q14486 33 14486 23Q14486 13 14479 6Q14473 0 14463 0L14419 0Q14383 0 14363 16Q14344 32 14344 61Q14344 66 14345 72Q14292 -10 14191 -10Q14135 -10 14103 20Q14072 50 14072 103Q14072 157 14114 187Q14157 218 14220 218Q14284 218 14344 197L14344 266Q14344 314 14309 328Q14282 338 14234 338Q14187 338 14147 322L14147 259Q14147 249 14139 242Q14131 236 14120 236Q14109 236 14101 242Q14093 249 14093 259L14093 335Q14093 348 14106 355Q14155 384 14236 384Q14317 384 14357 357Q14397 331 14397 266L14397 66Q14397 47 14424 47ZM14556 327L14509 327Q14499 327 14492 333Q14486 340 14486 350Q14486 360 14492 367Q14499 374 14509 374L14563 374Q14625 374 14625 306Q14685 384 14776 384Q14830 384 14864 356Q14899 329 14899 276L14899 66Q14899 47 14926 47L14965 47Q14975 47 14981 40Q14988 33 14988 23Q14988 13 14981 6Q14975 0 14965 0L14926 0Q14845 0 14845 65L14845 276Q14845 306 14826 322Q14808 338 14775 338Q14683 338 14629 242L14629 13Q14629 3 14621 -4Q14613 -10 14602 -10Q14591 -10 14583 -4Q14575 3 14575 13L14575 308Q14575 327 14556 327ZM15303 136L15303 155Q15237 173 15190 173Q15144 173 15114 155Q15085 137 15085 104Q15085 72 15104 54Q15123 36 15156 36Q15248 36 15303 136ZM15383 47L15422 47Q15432 47 15438 40Q15445 33 15445 23Q15445 13 15438 6Q15432 0 15422 0L15378 0Q15342 0 15322 16Q15303 32 15303 61Q15303 66 15304 72Q15251 -10 15150 -10Q15094 -10 15062 20Q15031 50 15031 103Q15031 157 15073 187Q15116 218 15179 218Q15243 218 15303 197L15303 266Q15303 314 15268 328Q15241 338 15193 338Q15146 338 15106 322L15106 259Q15106 249 15098 242Q15090 236 15079 236Q15068 236 15060 242Q15052 249 15052 259L15052 335Q15052 348 15065 355Q15114 384 15195 384Q15276 384 15316 357Q15356 331 15356 266L15356 66Q15356 47 15383 47ZM15545 -11Q15507 -33 15507 -77Q15507 -120 15543 -145Q15580 -170 15644 -170Q15708 -170 15759 -148Q15810 -126 15810 -88Q15810 -47 15738 -39Q15713 -37 15579 -19Q15557 -15 15545 -11ZM15758 241Q15758 285 15728 312Q15699 340 15652 340Q15606 340 15576 312Q15547 285 15547 241Q15547 197 15576 169Q15606 142 15652 142Q15699 142 15728 169Q15758 197 15758 241ZM15788 514Q15804 514 15810 497Q15824 462 15824 434Q15824 376 15776 336Q15812 299 15812 237Q15812 175 15765 135Q15719 96 15652 96Q15622 96 15595 104Q15572 97 15554 82Q15537 68 15537 54Q15537 35 15587 26Q15609 23 15746 7Q15864 -8 15864 -88Q15864 -150 15793 -183Q15723 -216 15643 -216Q15564 -216 15508 -182Q15453 -147 15453 -85Q15453 -23 15506 9Q15484 22 15484 54Q15484 98 15553 125Q15494 170 15494 237Q15494 305 15538 345Q15582 386 15644 386Q15707 386 15743 363Q15770 390 15770 432Q15770 453 15763 471Q15751 501 15775 511Q15782 514 15788 514ZM16200 220Q16197 274 16168 306Q16140 338 16086 338Q16033 338 15997 305Q15961 273 15952 220L16200 220ZM16202 96Q16209 108 16218 108Q16227 108 16236 103Q16245 99 16248 89Q16252 80 16247 72Q16196 -10 16085 -10Q15997 -10 15946 46Q15896 103 15896 189Q15896 275 15948 329Q16000 384 16085 384Q16170 384 16211 333Q16253 282 16253 197Q16253 174 16227 174L15950 173Q15954 111 15990 73Q16027 36 16085 36Q16163 36 16202 96ZM16930 276L16930 66Q16930 47 16957 47L16996 47Q17006 47 17012 40Q17019 33 17019 23Q17019 13 17012 6Q17006 0 16996 0L16957 0Q16876 0 16876 65L16876 276Q16876 338 16818 338Q16740 338 16689 251L16689 13Q16689 3 16681 -4Q16673 -10 16662 -10Q16651 -10 16643 -4Q16635 3 16635 13L16635 276Q16635 338 16577 338Q16532 338 16501 315Q16471 292 16443 243L16443 13Q16443 3 16435 -4Q16427 -10 16416 -10Q16405 -10 16397 -4Q16389 3 16389 13L16389 308Q16389 327 16370 327L16323 327Q16313 327 16306 333Q16300 340 16300 350Q16300 360 16306 367Q16313 374 16323 374L16377 374Q16439 374 16439 306Q16470 346 16501 365Q16533 384 16578 384Q16664 384 16684 312Q16714 348 16745 366Q16776 384 16823 384Q16870 384 16900 356Q16930 329 16930 276ZM17366 220Q17363 274 17334 306Q17306 338 17252 338Q17199 338 17163 305Q17127 273 17118 220L17366 220ZM17368 96Q17375 108 17384 108Q17393 108 17402 103Q17411 99 17414 89Q17418 80 17413 72Q17362 -10 17251 -10Q17163 -10 17112 46Q17062 103 17062 189Q17062 275 17114 329Q17166 384 17251 384Q17336 384 17377 333Q17419 282 17419 197Q17419 174 17393 174L17116 173Q17120 111 17156 73Q17193 36 17251 36Q17329 36 17368 96ZM17536 327L17489 327Q17479 327 17472 333Q17466 340 17466 350Q17466 360 17472 367Q17479 374 17489 374L17543 374Q17605 374 17605 306Q17665 384 17756 384Q17810 384 17844 356Q17879 329 17879 276L17879 66Q17879 47 17906 47L17945 47Q17955 47 17961 40Q17968 33 17968 23Q17968 13 17961 6Q17955 0 17945 0L17906 0Q17825 0 17825 65L17825 276Q17825 306 17806 322Q17788 338 17755 338Q17663 338 17609 242L17609 13Q17609 3 17601 -4Q17593 -10 17582 -10Q17571 -10 17563 -4Q17555 3 17555 13L17555 308Q17555 327 17536 327ZM18300 64Q18308 69 18318 67Q18329 65 18333 58Q18337 52 18337 47Q18337 32 18326 25Q18266 -10 18197 -10Q18128 -10 18098 18Q18068 47 18068 113L18068 327L18012 327Q18002 327 17995 333Q17989 340 17989 350Q17989 360 17995 367Q18002 374 18012 374L18068 374L18068 517Q18068 527 18076 533Q18084 540 18095 540Q18106 540 18114 533Q18122 527 18122 517L18122 374L18290 374Q18300 374 18306 367Q18313 360 18313 350Q18313 340 18306 333Q18300 327 18290 327L18122 327L18122 113Q18122 71 18139 53Q18157 36 18204 36Q18252 36 18300 64ZM18670 138L18670 69Q18737 37 18840 37Q18943 37 18995 69Q19047 102 19047 161Q19047 221 18998 250Q18949 279 18842 299Q18735 320 18681 354Q18628 388 18628 461Q18628 618 18861 618Q18985 618 19066 573Q19081 564 19081 552L19081 470Q19081 460 19073 453Q19065 447 19054 447Q19043 447 19035 453Q19027 460 19027 470L19027 539Q18958 571 18863 571Q18769 571 18725 544Q18682 517 18682 461Q18682 408 18738 382Q18776 363 18840 349Q18905 336 18932 329Q18959 322 18995 307Q19031 293 19051 275Q19071 257 19086 227Q19101 198 19101 160Q19101 82 19035 36Q18970 -10 18848 -10Q18792 -10 18727 2Q18662 15 18629 36Q18616 44 18616 56L18616 138Q18616 148 18624 154Q18632 161 18643 161Q18654 161 18662 154Q18670 148 18670 138ZM19135 -180L19167 -183Q19216 -183 19247 -142Q19271 -111 19300 -51L19334 19L19171 349Q19167 358 19171 367Q19176 376 19185 380Q19195 385 19204 385Q19214 385 19221 370L19362 74L19503 370Q19510 385 19519 385Q19543 385 19552 367Q19554 362 19554 357Q19554 353 19552 349L19348 -71Q19329 -111 19317 -131Q19306 -150 19284 -178Q19241 -229 19166 -229Q19145 -229 19134 -226Q19112 -221 19115 -201Q19118 -180 19135 -180ZM19624 39L19624 120Q19624 130 19632 136Q19640 143 19651 143Q19662 143 19670 136Q19678 130 19678 120L19678 52Q19726 36 19778 36Q19892 36 19892 100Q19892 148 19785 171Q19780 172 19763 176Q19746 180 19735 182Q19724 185 19698 194Q19673 204 19662 214Q19632 241 19632 280Q19632 320 19658 344Q19685 369 19717 376Q19749 384 19787 384Q19857 384 19916 357Q19934 349 19934 335L19934 258Q19934 248 19926 241Q19918 235 19907 235Q19896 235 19888 241Q19880 248 19880 258L19880 322Q19840 338 19787 338Q19685 338 19685 280Q19685 259 19698 251Q19712 243 19718 239Q19725 235 19742 231Q19766 225 19791 220Q19816 215 19832 211Q19848 207 19872 197Q19897 188 19911 176Q19946 148 19946 103Q19946 58 19916 31Q19887 5 19852 -3Q19818 -10 19778 -10Q19699 -10 19642 16Q19624 24 19624 39ZM20321 64Q20329 69 20339 67Q20350 65 20354 58Q20358 52 20358 47Q20358 32 20347 25Q20287 -10 20218 -10Q20149 -10 20119 18Q20089 47 20089 113L20089 327L20033 327Q20023 327 20016 333Q20010 340 20010 350Q20010 360 20016 367Q20023 374 20033 374L20089 374L20089 517Q20089 527 20097 533Q20105 540 20116 540Q20127 540 20135 533Q20143 527 20143 517L20143 374L20311 374Q20321 374 20327 367Q20334 360 20334 350Q20334 340 20327 333Q20321 327 20311 327L20143 327L20143 113Q20143 71 20160 53Q20178 36 20225 36Q20273 36 20321 64ZM20715 220Q20712 274 20683 306Q20655 338 20601 338Q20548 338 20512 305Q20476 273 20467 220L20715 220ZM20717 96Q20724 108 20733 108Q20742 108 20751 103Q20760 99 20763 89Q20767 80 20762 72Q20711 -10 20600 -10Q20512 -10 20461 46Q20411 103 20411 189Q20411 275 20463 329Q20515 384 20600 384Q20685 384 20726 333Q20768 282 20768 197Q20768 174 20742 174L20465 173Q20469 111 20505 73Q20542 36 20600 36Q20678 36 20717 96ZM21445 276L21445 66Q21445 47 21472 47L21511 47Q21521 47 21527 40Q21534 33 21534 23Q21534 13 21527 6Q21521 0 21511 0L21472 0Q21391 0 21391 65L21391 276Q21391 338 21333 338Q21255 338 21204 251L21204 13Q21204 3 21196 -4Q21188 -10 21177 -10Q21166 -10 21158 -4Q21150 3 21150 13L21150 276Q21150 338 21092 338Q21047 338 21016 315Q20986 292 20958 243L20958 13Q20958 3 20950 -4Q20942 -10 20931 -10Q20920 -10 20912 -4Q20904 3 20904 13L20904 308Q20904 327 20885 327L20838 327Q20828 327 20821 333Q20815 340 20815 350Q20815 360 20821 367Q20828 374 20838 374L20892 374Q20954 374 20954 306Q20985 346 21016 365Q21048 384 21093 384Q21179 384 21199 312Q21229 348 21260 366Q21291 384 21338 384Q21385 384 21415 356Q21445 329 21445 276Z" fill="#143d59" style=""></path></g></g></g></svg>