<svg version="1.1" xmlns="http://www.w3.org/2000/svg" viewBox="0 0 250 250"><desc>Created with Snap</desc><defs></defs><g transform="matrix(0.0113,0,0,0.0113,3.3316,113.1065)"><g transform="matrix(25.7566,0,0,25.7566,9482.0898,434.417)"><g><path d="M78.4,66.5c-5.5,4.8-9.9,15.2-9.9,15.2s-6.9-11.4-12.9-15.3c-9.5-6.1-13.6-6.2-13.6-6.2V65c0,0,7.8,1.2,11.7,4.6   c8.2,7.1,14.8,18.5,14.8,18.5S74.4,75,80.1,70.5C88.1,64.3,95,65,95,65v-4.8C95,60.1,85.1,60.7,78.4,66.5z" fill="#f4b41a" style=""></path><path d="M42,80c-6.4-3.6-17.8-4.3-17.8-4.3s8.7-10.1,10.5-17C37.5,47.9,36.2,44,36.2,44l-4.6,1.6c0,0,1.3,7.7-0.6,12.4   c-4.1,9.9-13,19.8-13,19.8s14.6,1.3,20.7,5.1c8.6,5.4,10.2,12,10.2,12l4.6-1.6C53.5,93.4,49.7,84.4,42,80z" fill="#f4b41a" style=""></path><path d="M35.3,36.8c11.3-0.9,14.6-3.4,14.6-3.4l-3-3.8c0,0-6.9,3.7-12.1,3.4c-10.9-0.6-23.3-5.6-23.3-5.6s3.5,14,1.8,20.9   C10.9,58.2,5,61.8,5,61.8l3,3.8c0,0,7.5-6.5,9.1-15.1c1.3-7.1-1.7-18-1.7-18S28,37.4,35.3,36.8z" fill="#f4b41a" style=""></path><path d="M37.4,17.8c7.3-1.1,16.7-7.4,16.7-7.4s-0.6,13.2,2.4,19.8c4.6,10.2,8,12.5,8,12.5l2.7-4c0,0-5.9-5.2-7.3-10.2   C56.9,18.2,57.7,5,57.7,5s-12.3,7.8-19.5,8.5c-10.2,1-15.6-3.3-15.6-3.3l-2.7,4.1C19.9,14.2,28.6,19.1,37.4,17.8z" fill="#f4b41a" style=""></path><path d="M65,60.5c0,0,3.1-7.2,7.4-10.1c9-6.1,21.9-9.7,21.9-9.7s-11.5-8.9-14.5-15.4c-4.2-9.1-1.9-15.6-1.9-15.6l-4.8-1.2   c0,0-1.9,9.6,2.2,17.4c3.4,6.4,12.5,13.2,12.5,13.2S75,42.9,69.6,47.8c-8.3,7.6-9.4,11.5-9.4,11.5L65,60.5z" fill="#f4b41a" style=""></path></g><desc>Created with Snap</desc><defs></defs></g><g><g transform="matrix(1.024,0,0,-1.024,0,0)"><path d="M100 0L245 680Q178 652 141 596Q105 540 105 461Q105 424 112 409Q119 395 119 393Q65 393 38 415Q12 438 12 490Q12 554 64 614Q117 675 199 712Q281 750 363 750Q377 750 403 748L339 450L486 450L550 748L694 748L535 0L391 0L471 376L324 376L244 0L100 0ZM764 -6Q716 -6 686 24Q657 54 657 114Q657 139 665 179L733 500L877 500L805 160Q802 145 802 132Q802 91 832 91Q860 91 880 114Q900 138 912 179L980 500L1124 500L1052 160Q1048 145 1048 128Q1048 108 1057 99Q1067 91 1089 91Q1117 91 1137 115Q1158 139 1170 179L1212 179Q1175 71 1120 32Q1066 -6 1011 -6Q968 -6 942 18Q917 42 912 89Q878 34 840 14Q803 -6 764 -6ZM1778 -6Q1717 -6 1688 26Q1660 59 1660 107Q1660 128 1665 154Q1670 181 1675 206Q1681 231 1683 238Q1691 273 1698 307Q1705 341 1705 362Q1705 413 1669 413Q1643 413 1623 387Q1603 362 1591 321L1523 0L1379 0L1452 345Q1455 357 1455 370Q1455 414 1425 414Q1397 414 1376 388Q1356 363 1344 321L1276 0L1132 0L1238 500L1382 500L1371 448Q1422 505 1493 505Q1581 505 1596 419Q1651 504 1735 504Q1786 504 1816 476Q1846 448 1846 391Q1846 362 1839 326Q1832 291 1819 240Q1811 209 1804 179Q1798 150 1798 133Q1798 113 1807 102Q1816 91 1838 91Q1868 91 1886 112Q1904 134 1922 179L1964 179Q1927 69 1878 31Q1830 -6 1778 -6ZM2042 -6Q1985 -6 1947 33Q1909 72 1909 155Q1909 229 1938 310Q1968 392 2026 448Q2085 505 2166 505Q2207 505 2227 491Q2247 477 2247 454L2247 447L2258 500L2402 500L2330 160Q2326 145 2326 128Q2326 85 2367 85Q2395 85 2415 111Q2436 137 2448 179L2490 179Q2453 71 2398 32Q2344 -6 2289 -6Q2247 -6 2221 17Q2196 41 2191 86Q2162 45 2126 19Q2091 -6 2042 -6ZM2107 91Q2132 91 2156 114Q2181 138 2190 179L2238 405Q2238 418 2228 430Q2218 443 2197 443Q2157 443 2125 396Q2093 350 2075 284Q2057 219 2057 169Q2057 119 2071 105Q2086 91 2107 91ZM2809 -6Q2748 -6 2719 26Q2691 59 2691 107Q2691 128 2696 154Q2701 181 2706 206Q2712 231 2714 238Q2722 273 2729 307Q2736 341 2736 362Q2736 413 2700 413Q2674 413 2654 387Q2634 362 2622 321L2554 0L2410 0L2516 500L2660 500L2649 448Q2699 504 2766 504Q2817 504 2847 476Q2877 448 2877 391Q2877 362 2870 326Q2863 291 2850 240Q2842 209 2835 179Q2829 150 2829 133Q2829 113 2838 102Q2847 91 2869 91Q2899 91 2917 112Q2935 134 2953 179L2995 179Q2958 69 2909 31Q2861 -6 2809 -6ZM3606 -17Q3528 -17 3528 50Q3528 72 3534 100Q3541 129 3553 174Q3567 221 3574 254Q3581 287 3581 313Q3581 381 3521 381Q3505 381 3488 377L3408 0L3264 0L3400 636L3548 656L3499 425L3507 425Q3546 425 3579 452Q3612 479 3630 519Q3649 560 3649 599Q3649 645 3621 674Q3594 704 3539 704Q3458 704 3397 675Q3336 646 3302 591Q3269 536 3269 461Q3269 424 3276 409Q3283 395 3283 393Q3229 393 3202 415Q3176 438 3176 490Q3176 554 3228 614Q3281 675 3363 712Q3445 750 3527 750Q3602 750 3653 728Q3704 706 3729 669Q3754 633 3754 590Q3754 543 3725 496Q3696 449 3646 419Q3684 408 3699 382Q3715 357 3715 319Q3715 290 3708 257Q3701 225 3688 177Q3680 146 3673 116Q3666 86 3666 66Q3666 43 3676 25Q3687 7 3705 0Q3644 -17 3606 -17ZM3914 -6Q3840 -6 3799 32Q3758 71 3758 153Q3758 222 3785 305Q3812 388 3873 448Q3934 509 4028 509Q4138 509 4138 413Q4138 357 4106 310Q4074 263 4021 234Q3968 206 3908 202Q3906 172 3906 162Q3906 113 3923 95Q3940 78 3978 78Q4032 78 4070 103Q4109 128 4155 179L4189 179Q4078 -6 3914 -6ZM3916 250Q3953 252 3986 276Q4020 300 4040 337Q4061 374 4061 415Q4061 456 4036 456Q4000 456 3965 393Q3931 330 3916 250ZM4269 -6Q4221 -6 4188 12Q4155 31 4139 60Q4123 90 4123 122Q4123 155 4138 179Q4154 204 4176 215Q4215 285 4244 356Q4273 428 4299 511L4447 531Q4452 403 4464 254Q4469 194 4469 167Q4469 144 4465 129Q4512 156 4537 179L4579 179Q4515 105 4426 54Q4397 23 4354 8Q4312 -6 4269 -6ZM4237 73Q4274 73 4299 95Q4324 117 4324 166Q4324 196 4318 250Q4308 364 4305 403Q4281 324 4224 214Q4247 202 4247 179Q4247 160 4234 145Q4222 130 4203 130Q4182 130 4176 143Q4176 107 4190 90Q4205 73 4237 73ZM4683 -4Q4609 -4 4566 34Q4523 72 4523 154Q4523 222 4551 305Q4579 388 4641 448Q4703 509 4797 509Q4925 509 4925 349L4925 348Q4928 347 4936 347Q4969 347 5012 364Q5055 382 5090 407L5099 380Q5070 349 5023 327Q4977 306 4922 297Q4914 206 4881 138Q4848 70 4796 33Q4744 -4 4683 -4ZM4723 86Q4747 86 4771 113Q4795 141 4813 188Q4831 236 4839 294Q4812 300 4812 336Q4812 377 4843 390Q4841 423 4833 435Q4825 448 4805 448Q4772 448 4741 400Q4710 352 4691 285Q4672 218 4672 167Q4672 119 4683 102Q4694 86 4723 86ZM5075 -6Q5027 -6 4997 24Q4968 54 4968 114Q4968 139 4976 179L5044 500L5188 500L5116 160Q5113 145 5113 132Q5113 91 5143 91Q5171 91 5191 114Q5211 138 5223 179L5291 500L5435 500L5363 160Q5359 145 5359 128Q5359 108 5368 99Q5378 91 5400 91Q5428 91 5448 115Q5469 139 5481 179L5523 179Q5486 71 5431 32Q5377 -6 5322 -6Q5279 -6 5253 18Q5228 42 5223 89Q5189 34 5151 14Q5114 -6 5075 -6ZM5443 0L5549 500L5693 500L5680 438Q5714 468 5741 484Q5769 500 5801 500Q5833 500 5851 478Q5870 456 5870 425Q5870 396 5851 374Q5832 352 5798 352Q5776 352 5768 362Q5761 373 5757 393Q5754 406 5751 412Q5748 418 5740 418Q5719 418 5704 409Q5690 401 5667 380L5587 0L5443 0ZM6000 -6Q5926 -6 5885 32Q5844 71 5844 153Q5844 222 5871 305Q5899 388 5959 448Q6020 509 6113 509Q6173 509 6198 483Q6224 457 6224 417Q6224 382 6209 363Q6194 344 6171 344Q6154 344 6136 356Q6148 389 6148 415Q6148 434 6141 445Q6134 456 6120 456Q6090 456 6060 407Q6030 358 6011 288Q5992 218 5992 162Q5992 113 6009 95Q6026 78 6064 78Q6118 78 6156 103Q6195 128 6241 179L6275 179Q6164 -6 6000 -6ZM6384 -6Q6310 -6 6269 32Q6228 71 6228 153Q6228 222 6255 305Q6282 388 6343 448Q6404 509 6498 509Q6608 509 6608 413Q6608 357 6576 310Q6544 263 6491 234Q6438 206 6378 202Q6376 172 6376 162Q6376 113 6393 95Q6410 78 6448 78Q6502 78 6540 103Q6579 128 6625 179L6659 179Q6548 -6 6384 -6ZM6386 250Q6423 252 6456 276Q6490 300 6510 337Q6531 374 6531 415Q6531 456 6506 456Q6470 456 6435 393Q6401 330 6386 250ZM7060 -114Q7023 -114 6995 -108Q6967 -102 6946 -79Q6926 -56 6926 -8Q6926 59 6966 172Q7007 285 7073 399Q7023 396 6994 384Q6965 372 6956 347Q6960 347 6964 337Q6969 327 6969 316Q6969 298 6953 287Q6937 277 6913 277Q6885 277 6868 292Q6851 307 6851 335Q6851 369 6877 397Q6904 425 6951 441Q6998 458 7055 458Q7076 458 7107 455Q7189 585 7280 667Q7372 750 7455 750Q7503 750 7534 736L7377 0L7233 0L7310 363Q7273 380 7242 388Q7211 396 7176 399Q7119 276 7082 147Q7046 19 7046 -58Q7046 -96 7060 -114ZM7319 407L7377 679Q7334 656 7287 593Q7241 531 7197 442Q7269 428 7319 407ZM7871 -6Q7810 -6 7781 26Q7753 59 7753 107Q7753 128 7758 154Q7763 181 7768 206Q7774 231 7776 238Q7784 273 7791 307Q7798 341 7798 362Q7798 413 7762 413Q7736 413 7716 387Q7696 362 7684 321L7616 0L7472 0L7578 500L7722 500L7711 448Q7761 504 7828 504Q7879 504 7909 476Q7939 448 7939 391Q7939 362 7932 326Q7925 291 7912 240Q7904 209 7897 179Q7891 150 7891 133Q7891 113 7900 102Q7909 91 7931 91Q7961 91 7979 112Q7997 134 8015 179L8057 179Q8020 69 7971 31Q7923 -6 7871 -6ZM8135 -6Q8078 -6 8040 33Q8002 72 8002 155Q8002 229 8031 310Q8061 392 8119 448Q8178 505 8259 505Q8300 505 8320 491Q8340 477 8340 454L8340 450L8389 680L8537 700L8422 160Q8418 145 8418 128Q8418 108 8427 99Q8437 91 8459 91Q8487 91 8507 115Q8528 139 8540 179L8582 179Q8521 0 8381 0Q8340 0 8314 22Q8289 44 8283 86Q8257 46 8220 20Q8184 -6 8135 -6ZM8200 91Q8224 91 8248 113Q8273 135 8282 174L8282 179L8331 408Q8322 443 8290 443Q8250 443 8218 396Q8186 350 8168 284Q8150 219 8150 169Q8150 119 8164 105Q8179 91 8200 91ZM8914 0L9056 662L9044 662Q8955 662 8905 617Q8856 573 8856 460Q8856 423 8863 408Q8870 394 8870 392Q8816 392 8789 414Q8763 437 8763 489Q8763 560 8798 618Q8833 677 8909 713Q8986 749 9104 749Q9170 749 9246 737Q9310 726 9360 726Q9424 726 9476 747Q9474 682 9443 651Q9412 620 9351 620Q9319 620 9287 625Q9255 630 9196 642L9058 0L8914 0ZM9405 554Q9372 554 9349 577Q9326 600 9326 633Q9326 666 9349 689Q9372 713 9405 713Q9438 713 9461 689Q9485 666 9485 633Q9485 600 9461 577Q9438 554 9405 554ZM9337 -6Q9289 -6 9259 24Q9230 54 9230 114Q9230 139 9238 179L9306 500L9450 500L9378 160Q9374 145 9374 128Q9374 108 9383 99Q9393 91 9415 91Q9444 91 9469 115Q9494 140 9505 179L9547 179Q9510 71 9452 32Q9394 -6 9337 -6ZM10113 -6Q10052 -6 10023 26Q9995 59 9995 107Q9995 128 10000 154Q10005 181 10010 206Q10016 231 10018 238Q10026 273 10033 307Q10040 341 10040 362Q10040 413 10004 413Q9978 413 9958 387Q9938 362 9926 321L9858 0L9714 0L9787 345Q9790 357 9790 370Q9790 414 9760 414Q9732 414 9711 388Q9691 363 9679 321L9611 0L9467 0L9573 500L9717 500L9706 448Q9757 505 9828 505Q9916 505 9931 419Q9986 504 10070 504Q10121 504 10151 476Q10181 448 10181 391Q10181 362 10174 326Q10167 291 10154 240Q10146 209 10139 179Q10133 150 10133 133Q10133 113 10142 102Q10151 91 10173 91Q10203 91 10221 112Q10239 134 10257 179L10299 179Q10262 69 10213 31Q10165 -6 10113 -6ZM10400 -6Q10326 -6 10285 32Q10244 71 10244 153Q10244 222 10271 305Q10298 388 10359 448Q10420 509 10514 509Q10624 509 10624 413Q10624 357 10592 310Q10560 263 10507 234Q10454 206 10394 202Q10392 172 10392 162Q10392 113 10409 95Q10426 78 10464 78Q10518 78 10556 103Q10595 128 10641 179L10675 179Q10564 -6 10400 -6ZM10402 250Q10439 252 10472 276Q10506 300 10526 337Q10547 374 10547 415Q10547 456 10522 456Q10486 456 10451 393Q10417 330 10402 250ZM10755 -6Q10707 -6 10674 12Q10641 31 10625 60Q10609 90 10609 122Q10609 155 10624 179Q10640 204 10662 215Q10701 285 10730 356Q10759 428 10785 511L10933 531Q10938 403 10950 254Q10955 194 10955 167Q10955 144 10951 129Q10998 156 11023 179L11065 179Q11001 105 10912 54Q10883 23 10840 8Q10798 -6 10755 -6ZM10723 73Q10760 73 10785 95Q10810 117 10810 166Q10810 196 10804 250Q10794 364 10791 403Q10767 324 10710 214Q10733 202 10733 179Q10733 160 10720 145Q10708 130 10689 130Q10668 130 10662 143Q10662 107 10676 90Q10691 73 10723 73ZM11384 -6Q11323 -6 11294 26Q11266 59 11266 107Q11266 128 11271 154Q11276 181 11281 206Q11287 231 11289 238Q11297 273 11304 307Q11311 341 11311 362Q11311 413 11275 413Q11249 413 11229 387Q11209 362 11197 321L11129 0L10985 0L11130 680L11278 700L11224 448Q11274 504 11341 504Q11392 504 11422 476Q11452 448 11452 391Q11452 362 11445 326Q11438 291 11425 240Q11417 209 11410 179Q11404 150 11404 133Q11404 113 11413 102Q11422 91 11444 91Q11474 91 11492 112Q11510 134 11528 179L11570 179Q11533 69 11484 31Q11436 -6 11384 -6ZM11671 -6Q11597 -6 11556 32Q11515 71 11515 153Q11515 222 11542 305Q11569 388 11630 448Q11691 509 11785 509Q11895 509 11895 413Q11895 357 11863 310Q11831 263 11778 234Q11725 206 11665 202Q11663 172 11663 162Q11663 113 11680 95Q11697 78 11735 78Q11789 78 11827 103Q11866 128 11912 179L11946 179Q11835 -6 11671 -6ZM11673 250Q11710 252 11743 276Q11777 300 11797 337Q11818 374 11818 415Q11818 456 11793 456Q11757 456 11722 393Q11688 330 11673 250ZM12055 -6Q11981 -6 11940 32Q11899 71 11899 153Q11899 222 11926 305Q11953 388 12014 448Q12075 509 12169 509Q12279 509 12279 413Q12279 357 12247 310Q12215 263 12162 234Q12109 206 12049 202Q12047 172 12047 162Q12047 113 12064 95Q12081 78 12119 78Q12173 78 12211 103Q12250 128 12296 179L12330 179Q12219 -6 12055 -6ZM12057 250Q12094 252 12127 276Q12161 300 12181 337Q12202 374 12202 415Q12202 456 12177 456Q12141 456 12106 393Q12072 330 12057 250ZM12395 -6Q12347 -6 12317 24Q12288 54 12288 114Q12288 139 12296 179L12356 460L12323 460L12331 500L12364 500L12394 638L12542 658L12508 500L12568 500L12560 460L12500 460L12436 160Q12432 145 12432 128Q12432 108 12441 99Q12451 91 12473 91Q12502 91 12527 115Q12552 140 12563 179L12605 179Q12568 71 12510 32Q12452 -6 12395 -6ZM12847 0L13101 687Q13025 662 12983 604Q12942 547 12942 462Q12942 424 12949 410Q12956 396 12956 393Q12849 393 12849 484Q12849 546 12896 608Q12944 671 13018 710Q13093 750 13167 750Q13204 750 13243 736L13220 209L13440 736L13584 736L13479 0L13335 0L13399 449L13211 0L13074 0L13094 451L12927 0L12847 0ZM13687 -6Q13630 -6 13592 33Q13554 72 13554 155Q13554 229 13583 310Q13613 392 13671 448Q13730 505 13811 505Q13852 505 13872 491Q13892 477 13892 454L13892 447L13903 500L14047 500L13975 160Q13971 145 13971 128Q13971 85 14012 85Q14040 85 14060 111Q14081 137 14093 179L14135 179Q14098 71 14043 32Q13989 -6 13934 -6Q13892 -6 13866 17Q13841 41 13836 86Q13807 45 13771 19Q13736 -6 13687 -6ZM13752 91Q13777 91 13801 114Q13826 138 13835 179L13883 405Q13883 418 13873 430Q13863 443 13842 443Q13802 443 13770 396Q13738 350 13720 284Q13702 219 13702 169Q13702 119 13716 105Q13731 91 13752 91ZM14454 -6Q14393 -6 14364 26Q14336 59 14336 107Q14336 128 14341 154Q14346 181 14351 206Q14357 231 14359 238Q14367 273 14374 307Q14381 341 14381 362Q14381 413 14345 413Q14319 413 14299 387Q14279 362 14267 321L14199 0L14055 0L14161 500L14305 500L14294 448Q14344 504 14411 504Q14462 504 14492 476Q14522 448 14522 391Q14522 362 14515 326Q14508 291 14495 240Q14487 209 14480 179Q14474 150 14474 133Q14474 113 14483 102Q14492 91 14514 91Q14544 91 14562 112Q14580 134 14598 179L14640 179Q14603 69 14554 31Q14506 -6 14454 -6ZM14718 -6Q14661 -6 14623 33Q14585 72 14585 155Q14585 229 14614 310Q14644 392 14702 448Q14761 505 14842 505Q14883 505 14903 491Q14923 477 14923 454L14923 447L14934 500L15078 500L15006 160Q15002 145 15002 128Q15002 85 15043 85Q15071 85 15091 111Q15112 137 15124 179L15166 179Q15129 71 15074 32Q15020 -6 14965 -6Q14923 -6 14897 17Q14872 41 14867 86Q14838 45 14802 19Q14767 -6 14718 -6ZM14783 91Q14808 91 14832 114Q14857 138 14866 179L14914 405Q14914 418 14904 430Q14894 443 14873 443Q14833 443 14801 396Q14769 350 14751 284Q14733 219 14733 169Q14733 119 14747 105Q14762 91 14783 91ZM15301 -250Q15253 -250 15221 -225Q15189 -200 15189 -153Q15189 -96 15235 -62Q15281 -27 15352 -4L15364 49Q15313 -6 15244 -6Q15187 -6 15149 33Q15111 72 15111 155Q15111 229 15140 310Q15170 392 15228 448Q15287 505 15368 505Q15409 505 15429 491Q15449 477 15449 454L15449 448L15460 500L15604 500L15505 36Q15553 52 15582 84Q15611 116 15631 179L15673 179Q15646 90 15600 48Q15554 7 15496 -8L15481 -80Q15461 -177 15412 -214Q15363 -250 15301 -250ZM15309 91Q15332 91 15356 112Q15380 133 15389 169L15440 406Q15440 418 15430 430Q15420 443 15399 443Q15359 443 15327 396Q15295 350 15277 284Q15259 219 15259 169Q15259 119 15273 105Q15288 91 15309 91ZM15278 -172Q15295 -172 15311 -149Q15327 -126 15336 -83L15342 -54Q15244 -90 15244 -139Q15244 -152 15253 -162Q15262 -172 15278 -172ZM15774 -6Q15700 -6 15659 32Q15618 71 15618 153Q15618 222 15645 305Q15672 388 15733 448Q15794 509 15888 509Q15998 509 15998 413Q15998 357 15966 310Q15934 263 15881 234Q15828 206 15768 202Q15766 172 15766 162Q15766 113 15783 95Q15800 78 15838 78Q15892 78 15930 103Q15969 128 16015 179L16049 179Q15938 -6 15774 -6ZM15776 250Q15813 252 15846 276Q15880 300 15900 337Q15921 374 15921 415Q15921 456 15896 456Q15860 456 15825 393Q15791 330 15776 250ZM16623 -6Q16562 -6 16533 26Q16505 59 16505 107Q16505 128 16510 154Q16515 181 16520 206Q16526 231 16528 238Q16536 273 16543 307Q16550 341 16550 362Q16550 413 16514 413Q16488 413 16468 387Q16448 362 16436 321L16368 0L16224 0L16297 345Q16300 357 16300 370Q16300 414 16270 414Q16242 414 16221 388Q16201 363 16189 321L16121 0L15977 0L16083 500L16227 500L16216 448Q16267 505 16338 505Q16426 505 16441 419Q16496 504 16580 504Q16631 504 16661 476Q16691 448 16691 391Q16691 362 16684 326Q16677 291 16664 240Q16656 209 16649 179Q16643 150 16643 133Q16643 113 16652 102Q16661 91 16683 91Q16713 91 16731 112Q16749 134 16767 179L16809 179Q16772 69 16723 31Q16675 -6 16623 -6ZM16910 -6Q16836 -6 16795 32Q16754 71 16754 153Q16754 222 16781 305Q16808 388 16869 448Q16930 509 17024 509Q17134 509 17134 413Q17134 357 17102 310Q17070 263 17017 234Q16964 206 16904 202Q16902 172 16902 162Q16902 113 16919 95Q16936 78 16974 78Q17028 78 17066 103Q17105 128 17151 179L17185 179Q17074 -6 16910 -6ZM16912 250Q16949 252 16982 276Q17016 300 17036 337Q17057 374 17057 415Q17057 456 17032 456Q16996 456 16961 393Q16927 330 16912 250ZM17512 -6Q17451 -6 17422 26Q17394 59 17394 107Q17394 128 17399 154Q17404 181 17409 206Q17415 231 17417 238Q17425 273 17432 307Q17439 341 17439 362Q17439 413 17403 413Q17377 413 17357 387Q17337 362 17325 321L17257 0L17113 0L17219 500L17363 500L17352 448Q17402 504 17469 504Q17520 504 17550 476Q17580 448 17580 391Q17580 362 17573 326Q17566 291 17553 240Q17545 209 17538 179Q17532 150 17532 133Q17532 113 17541 102Q17550 91 17572 91Q17602 91 17620 112Q17638 134 17656 179L17698 179Q17661 69 17612 31Q17564 -6 17512 -6ZM17755 -6Q17707 -6 17677 24Q17648 54 17648 114Q17648 139 17656 179L17716 460L17683 460L17691 500L17724 500L17754 638L17902 658L17868 500L17928 500L17920 460L17860 460L17796 160Q17792 145 17792 128Q17792 108 17801 99Q17811 91 17833 91Q17862 91 17887 115Q17912 140 17923 179L17965 179Q17928 71 17870 32Q17812 -6 17755 -6ZM18385 -18Q18322 -18 18274 4Q18226 26 18200 65Q18174 105 18174 157Q18174 201 18192 237Q18211 273 18242 294Q18274 315 18312 315Q18347 315 18371 297Q18395 280 18401 249Q18349 249 18318 221Q18287 194 18287 147Q18287 104 18313 78Q18339 52 18382 52Q18435 52 18469 87Q18504 123 18504 177Q18504 224 18478 266Q18452 308 18400 368Q18346 430 18318 474Q18291 519 18291 572Q18291 624 18320 665Q18349 707 18400 731Q18451 755 18515 755Q18596 755 18644 717Q18693 679 18693 615Q18693 573 18672 547Q18651 521 18617 521Q18579 521 18556 552Q18575 566 18586 589Q18597 612 18597 637Q18597 669 18578 688Q18559 707 18526 707Q18486 707 18460 678Q18435 650 18435 606Q18435 566 18458 531Q18481 497 18530 443Q18570 400 18594 369Q18619 338 18636 297Q18654 257 18654 210Q18654 146 18618 94Q18583 42 18521 12Q18460 -18 18385 -18ZM18866 -250Q18818 -250 18786 -225Q18754 -200 18754 -153Q18754 -96 18800 -62Q18846 -27 18917 -4L18929 50Q18900 18 18870 6Q18840 -6 18809 -6Q18761 -6 18731 24Q18702 54 18702 114Q18702 139 18710 179L18778 500L18922 500L18850 160Q18847 148 18847 135Q18847 91 18877 91Q18903 91 18923 113Q18943 136 18955 173L19025 500L19169 500L19070 36Q19118 52 19147 84Q19176 116 19196 179L19238 179Q19211 90 19165 48Q19119 7 19061 -8L19046 -80Q19026 -177 18977 -214Q18928 -250 18866 -250ZM18843 -172Q18860 -172 18876 -149Q18892 -126 18901 -83L18907 -54Q18809 -90 18809 -139Q18809 -152 18818 -162Q18827 -172 18843 -172ZM19310 -6Q19262 -6 19229 12Q19196 31 19180 60Q19164 90 19164 122Q19164 155 19179 179Q19195 204 19217 215Q19256 285 19285 356Q19314 428 19340 511L19488 531Q19493 403 19505 254Q19510 194 19510 167Q19510 144 19506 129Q19553 156 19578 179L19620 179Q19556 105 19467 54Q19438 23 19395 8Q19353 -6 19310 -6ZM19278 73Q19315 73 19340 95Q19365 117 19365 166Q19365 196 19359 250Q19349 364 19346 403Q19322 324 19265 214Q19288 202 19288 179Q19288 160 19275 145Q19263 130 19244 130Q19223 130 19217 143Q19217 107 19231 90Q19246 73 19278 73ZM19677 -6Q19629 -6 19599 24Q19570 54 19570 114Q19570 139 19578 179L19638 460L19605 460L19613 500L19646 500L19676 638L19824 658L19790 500L19850 500L19842 460L19782 460L19718 160Q19714 145 19714 128Q19714 108 19723 99Q19733 91 19755 91Q19784 91 19809 115Q19834 140 19845 179L19887 179Q19850 71 19792 32Q19734 -6 19677 -6ZM19988 -6Q19914 -6 19873 32Q19832 71 19832 153Q19832 222 19859 305Q19886 388 19947 448Q20008 509 20102 509Q20212 509 20212 413Q20212 357 20180 310Q20148 263 20095 234Q20042 206 19982 202Q19980 172 19980 162Q19980 113 19997 95Q20014 78 20052 78Q20106 78 20144 103Q20183 128 20229 179L20263 179Q20152 -6 19988 -6ZM19990 250Q20027 252 20060 276Q20094 300 20114 337Q20135 374 20135 415Q20135 456 20110 456Q20074 456 20039 393Q20005 330 19990 250ZM20837 -6Q20776 -6 20747 26Q20719 59 20719 107Q20719 128 20724 154Q20729 181 20734 206Q20740 231 20742 238Q20750 273 20757 307Q20764 341 20764 362Q20764 413 20728 413Q20702 413 20682 387Q20662 362 20650 321L20582 0L20438 0L20511 345Q20514 357 20514 370Q20514 414 20484 414Q20456 414 20435 388Q20415 363 20403 321L20335 0L20191 0L20297 500L20441 500L20430 448Q20481 505 20552 505Q20640 505 20655 419Q20710 504 20794 504Q20845 504 20875 476Q20905 448 20905 391Q20905 362 20898 326Q20891 291 20878 240Q20870 209 20863 179Q20857 150 20857 133Q20857 113 20866 102Q20875 91 20897 91Q20927 91 20945 112Q20963 134 20981 179L21023 179Q20986 69 20937 31Q20889 -6 20837 -6Z" fill="#143d59" style=""></path></g></g></g></svg>